<svg width="375" height="112" viewBox="0 0 375 112" fill="none" xmlns="http://www.w3.org/2000/svg">
<g filter="url(#filter0_d)">
<path fill-rule="evenodd" clip-rule="evenodd" d="M0 38H375V112H0V38Z" fill="white"/>
</g>
<path fill-rule="evenodd" clip-rule="evenodd" d="M282 38H375V78H282V38Z" fill="#B9CAD2" fill-opacity="0.01"/>
<path d="M336.843 64.6487L335.7 62.5428V57.3423C335.7 54.1274 333.499 51.4076 330.498 50.556V47.96C330.498 46.8793 329.602 46 328.5 46C327.398 46 326.502 46.8793 326.502 47.96V50.556C323.501 51.4077 321.3 54.1275 321.3 57.3423V62.5428L320.157 64.6487C319.937 65.0542 319.949 65.5315 320.19 65.9255C320.431 66.3194 320.855 66.5546 321.323 66.5546H325.863C325.941 67.9158 327.094 69 328.5 69C329.906 69 331.059 67.9158 331.137 66.5546H335.677C336.145 66.5546 336.569 66.3194 336.81 65.9255C337.051 65.5315 337.063 65.0542 336.843 64.6487ZM327.559 47.96C327.559 47.4511 327.981 47.0371 328.5 47.0371C329.019 47.0371 329.441 47.4511 329.441 47.96V50.3395C329.133 50.2998 328.819 50.2792 328.5 50.2792C328.181 50.2792 327.867 50.2999 327.559 50.3395V47.96ZM322.358 57.3423C322.358 54.0195 325.113 51.3161 328.5 51.3161C331.887 51.3161 334.642 54.0195 334.642 57.3423V62.1137H322.358V57.3423ZM328.5 67.9629C327.677 67.9629 326.998 67.3434 326.923 66.5546H330.077C330.002 67.3434 329.323 67.9629 328.5 67.9629ZM335.904 65.3917C335.88 65.4296 335.812 65.5176 335.677 65.5176H321.323C321.188 65.5176 321.12 65.4296 321.096 65.3917C321.073 65.3539 321.026 65.2532 321.09 65.1363L322.168 63.1508H334.832L335.91 65.1363C335.974 65.2532 335.927 65.3539 335.904 65.3917Z" fill="#384F7D" fill-opacity="0.45"/>
<path d="M328.5 52.6982C325.89 52.6982 323.766 54.7815 323.766 57.3422C323.766 57.6285 324.003 57.8607 324.295 57.8607C324.587 57.8607 324.823 57.6285 324.823 57.3422C324.823 55.3534 326.473 53.7353 328.5 53.7353C328.792 53.7353 329.028 53.5031 329.028 53.2168C329.028 52.9304 328.792 52.6982 328.5 52.6982Z" fill="#384F7D" fill-opacity="0.45"/>
<path d="M305.584 82H304.564L300.734 76.22V82H299.754V74.91H301.064L304.604 80.35V74.91H305.584V82ZM308.391 80.86C308.685 81.16 309.041 81.31 309.461 81.31C309.881 81.31 310.235 81.16 310.521 80.86C310.815 80.5533 310.961 80.13 310.961 79.59C310.961 79.0567 310.815 78.64 310.521 78.34C310.235 78.0333 309.881 77.88 309.461 77.88C309.041 77.88 308.685 78.0333 308.391 78.34C308.105 78.64 307.961 79.0567 307.961 79.59C307.961 80.13 308.105 80.5533 308.391 80.86ZM307.691 77.77C308.158 77.2833 308.748 77.04 309.461 77.04C310.175 77.04 310.761 77.2833 311.221 77.77C311.688 78.25 311.921 78.8567 311.921 79.59C311.921 80.33 311.691 80.9433 311.231 81.43C310.771 81.91 310.181 82.15 309.461 82.15C308.741 82.15 308.151 81.91 307.691 81.43C307.231 80.9433 307.001 80.33 307.001 79.59C307.001 78.8567 307.231 78.25 307.691 77.77ZM314.455 75.67V77.19H315.495V78.04H314.455V80.54C314.455 80.7667 314.505 80.9333 314.605 81.04C314.712 81.1467 314.885 81.2 315.125 81.2C315.265 81.2 315.388 81.1867 315.495 81.16V81.96C315.335 82.02 315.122 82.05 314.855 82.05C314.442 82.05 314.115 81.93 313.875 81.69C313.635 81.45 313.515 81.1133 313.515 80.68V78.04H312.595V77.19H312.855C313.102 77.19 313.285 77.1233 313.405 76.99C313.532 76.85 313.595 76.67 313.595 76.45V75.67H314.455ZM317.8 82H316.87V77.19H317.8V82ZM316.85 75.85C316.723 75.7167 316.66 75.5567 316.66 75.37C316.66 75.1833 316.723 75.0233 316.85 74.89C316.983 74.7567 317.143 74.69 317.33 74.69C317.516 74.69 317.676 74.7567 317.81 74.89C317.943 75.0167 318.01 75.1767 318.01 75.37C318.01 75.5567 317.943 75.7167 317.81 75.85C317.676 75.9767 317.516 76.04 317.33 76.04C317.143 76.04 316.983 75.9767 316.85 75.85ZM321.389 74.73C321.676 74.73 321.862 74.7633 321.949 74.83V75.67C321.849 75.63 321.712 75.61 321.539 75.61C321.332 75.61 321.152 75.67 320.999 75.79C320.852 75.91 320.779 76.12 320.779 76.42V77.19H323.959V82H323.029V78.04H320.779V82H319.809V78.04H318.919V77.19H319.809V76.38C319.809 75.8667 319.959 75.4633 320.259 75.17C320.559 74.8767 320.936 74.73 321.389 74.73ZM323.009 75.83C322.882 75.6967 322.819 75.5367 322.819 75.35C322.819 75.1633 322.882 75.0033 323.009 74.87C323.142 74.7367 323.302 74.67 323.489 74.67C323.682 74.67 323.842 74.7367 323.969 74.87C324.102 74.9967 324.169 75.1567 324.169 75.35C324.169 75.5367 324.102 75.6967 323.969 75.83C323.836 75.9567 323.676 76.02 323.489 76.02C323.302 76.02 323.142 75.9567 323.009 75.83ZM327.694 77.91C327.287 77.91 326.941 78.0567 326.654 78.35C326.374 78.6433 326.234 79.0567 326.234 79.59C326.234 80.1167 326.374 80.53 326.654 80.83C326.941 81.13 327.291 81.28 327.704 81.28C328.104 81.28 328.407 81.18 328.614 80.98C328.827 80.78 328.971 80.55 329.044 80.29L329.874 80.65C329.741 81.05 329.487 81.4 329.114 81.7C328.747 82 328.277 82.15 327.704 82.15C327.004 82.15 326.424 81.9067 325.964 81.42C325.504 80.9333 325.274 80.3233 325.274 79.59C325.274 78.8433 325.504 78.2333 325.964 77.76C326.424 77.28 327.001 77.04 327.694 77.04C328.281 77.04 328.754 77.19 329.114 77.49C329.481 77.79 329.721 78.15 329.834 78.57L328.984 78.93C328.911 78.65 328.771 78.41 328.564 78.21C328.357 78.01 328.067 77.91 327.694 77.91ZM330.748 80.71C330.748 80.2967 330.881 79.9667 331.148 79.72C331.415 79.4667 331.768 79.31 332.208 79.25L333.508 79.06C333.755 79.0267 333.878 78.9067 333.878 78.7C333.878 78.4467 333.791 78.24 333.618 78.08C333.445 77.92 333.185 77.84 332.838 77.84C332.518 77.84 332.265 77.93 332.078 78.11C331.891 78.2833 331.781 78.5167 331.748 78.81L330.848 78.6C330.895 78.14 331.105 77.7667 331.478 77.48C331.851 77.1867 332.298 77.04 332.818 77.04C333.498 77.04 334.001 77.2067 334.328 77.54C334.655 77.8667 334.818 78.2867 334.818 78.8V81.21C334.818 81.4967 334.838 81.76 334.878 82H333.958C333.925 81.8 333.908 81.5833 333.908 81.35C333.775 81.5633 333.578 81.75 333.318 81.91C333.065 82.07 332.745 82.15 332.358 82.15C331.885 82.15 331.498 82.01 331.198 81.73C330.898 81.4433 330.748 81.1033 330.748 80.71ZM332.488 81.36C332.908 81.36 333.245 81.2467 333.498 81.02C333.751 80.7933 333.878 80.4333 333.878 79.94V79.72L332.408 79.94C332.195 79.9733 332.025 80.05 331.898 80.17C331.771 80.29 331.708 80.4533 331.708 80.66C331.708 80.8467 331.778 81.01 331.918 81.15C332.065 81.29 332.255 81.36 332.488 81.36ZM337.662 75.67V77.19H338.702V78.04H337.662V80.54C337.662 80.7667 337.712 80.9333 337.812 81.04C337.919 81.1467 338.092 81.2 338.332 81.2C338.472 81.2 338.596 81.1867 338.702 81.16V81.96C338.542 82.02 338.329 82.05 338.062 82.05C337.649 82.05 337.322 81.93 337.082 81.69C336.842 81.45 336.722 81.1133 336.722 80.68V78.04H335.802V77.19H336.062C336.309 77.19 336.492 77.1233 336.612 76.99C336.739 76.85 336.802 76.67 336.802 76.45V75.67H337.662ZM341.007 82H340.077V77.19H341.007V82ZM340.057 75.85C339.93 75.7167 339.867 75.5567 339.867 75.37C339.867 75.1833 339.93 75.0233 340.057 74.89C340.19 74.7567 340.35 74.69 340.537 74.69C340.724 74.69 340.884 74.7567 341.017 74.89C341.15 75.0167 341.217 75.1767 341.217 75.37C341.217 75.5567 341.15 75.7167 341.017 75.85C340.884 75.9767 340.724 76.04 340.537 76.04C340.35 76.04 340.19 75.9767 340.057 75.85ZM343.716 80.86C344.01 81.16 344.366 81.31 344.786 81.31C345.206 81.31 345.56 81.16 345.846 80.86C346.14 80.5533 346.286 80.13 346.286 79.59C346.286 79.0567 346.14 78.64 345.846 78.34C345.56 78.0333 345.206 77.88 344.786 77.88C344.366 77.88 344.01 78.0333 343.716 78.34C343.43 78.64 343.286 79.0567 343.286 79.59C343.286 80.13 343.43 80.5533 343.716 80.86ZM343.016 77.77C343.483 77.2833 344.073 77.04 344.786 77.04C345.5 77.04 346.086 77.2833 346.546 77.77C347.013 78.25 347.246 78.8567 347.246 79.59C347.246 80.33 347.016 80.9433 346.556 81.43C346.096 81.91 345.506 82.15 344.786 82.15C344.066 82.15 343.476 81.91 343.016 81.43C342.556 80.9433 342.326 80.33 342.326 79.59C342.326 78.8567 342.556 78.25 343.016 77.77ZM349.509 79.22V82H348.569V77.19H349.489V77.88C349.809 77.3267 350.302 77.05 350.969 77.05C351.522 77.05 351.946 77.2267 352.239 77.58C352.539 77.9333 352.689 78.39 352.689 78.95V82H351.749V79.11C351.749 78.3033 351.376 77.9 350.629 77.9C350.276 77.9 349.999 78.0267 349.799 78.28C349.606 78.5267 349.509 78.84 349.509 79.22ZM353.854 80.75L354.704 80.45C354.738 80.71 354.851 80.9267 355.044 81.1C355.238 81.2667 355.498 81.35 355.824 81.35C356.078 81.35 356.278 81.29 356.424 81.17C356.571 81.0433 356.644 80.89 356.644 80.71C356.644 80.39 356.438 80.1833 356.024 80.09L355.204 79.91C354.831 79.83 354.538 79.67 354.324 79.43C354.111 79.19 354.004 78.9 354.004 78.56C354.004 78.1467 354.171 77.79 354.504 77.49C354.844 77.19 355.248 77.04 355.714 77.04C356.021 77.04 356.294 77.0867 356.534 77.18C356.774 77.2667 356.961 77.3833 357.094 77.53C357.228 77.6767 357.328 77.8133 357.394 77.94C357.461 78.0667 357.511 78.1967 357.544 78.33L356.714 78.64C356.701 78.56 356.678 78.4833 356.644 78.41C356.611 78.33 356.558 78.2433 356.484 78.15C356.418 78.0567 356.318 77.9833 356.184 77.93C356.051 77.87 355.894 77.84 355.714 77.84C355.481 77.84 355.288 77.9033 355.134 78.03C354.988 78.1567 354.914 78.3067 354.914 78.48C354.914 78.7867 355.098 78.98 355.464 79.06L356.244 79.23C356.671 79.3233 356.998 79.4967 357.224 79.75C357.458 79.9967 357.574 80.3 357.574 80.66C357.574 81.04 357.418 81.3833 357.104 81.69C356.798 81.9967 356.368 82.15 355.814 82.15C355.221 82.15 354.758 82.0033 354.424 81.71C354.091 81.41 353.901 81.09 353.854 80.75Z" fill="#384F7D" fill-opacity="0.45"/>
<path fill-rule="evenodd" clip-rule="evenodd" d="M0 38H93V87H0V38Z" fill="#B9CAD2" fill-opacity="0.01"/>
<path d="M32.6652 75.82H30.2952V82H29.3152V75.82H26.9452V74.91H32.6652V75.82ZM34.4179 82H33.4879V77.19H34.4179V82ZM33.4679 75.85C33.3412 75.7167 33.2779 75.5567 33.2779 75.37C33.2779 75.1833 33.3412 75.0233 33.4679 74.89C33.6012 74.7567 33.7612 74.69 33.9479 74.69C34.1345 74.69 34.2945 74.7567 34.4279 74.89C34.5612 75.0167 34.6279 75.1767 34.6279 75.37C34.6279 75.5567 34.5612 75.7167 34.4279 75.85C34.2945 75.9767 34.1345 76.04 33.9479 76.04C33.7612 76.04 33.6012 75.9767 33.4679 75.85ZM37.0671 82H36.1371V77.19H37.0371V77.83C37.1838 77.5767 37.3905 77.3833 37.6571 77.25C37.9238 77.1167 38.2038 77.05 38.4971 77.05C38.8105 77.05 39.0971 77.1267 39.3571 77.28C39.6171 77.4333 39.8105 77.66 39.9371 77.96C40.2705 77.3533 40.8071 77.05 41.5471 77.05C42.0071 77.05 42.3971 77.2067 42.7171 77.52C43.0438 77.8333 43.2071 78.2867 43.2071 78.88V82H42.2771V78.98C42.2771 78.6467 42.1905 78.38 42.0171 78.18C41.8505 77.98 41.5971 77.88 41.2571 77.88C40.9305 77.88 40.6638 77.9967 40.4571 78.23C40.2505 78.4567 40.1471 78.7433 40.1471 79.09V82H39.2071V78.98C39.2071 78.6467 39.1205 78.38 38.9471 78.18C38.7805 77.98 38.5271 77.88 38.1871 77.88C37.8538 77.88 37.5838 77.9933 37.3771 78.22C37.1705 78.4467 37.0671 78.74 37.0671 79.1V82ZM45.4414 79.1H48.0714C48.058 78.74 47.938 78.4467 47.7114 78.22C47.4847 77.9867 47.1647 77.87 46.7514 77.87C46.378 77.87 46.0714 77.9933 45.8314 78.24C45.5914 78.48 45.4614 78.7667 45.4414 79.1ZM48.2114 80.35L49.0214 80.63C48.8814 81.0767 48.6214 81.4433 48.2414 81.73C47.8614 82.01 47.4014 82.15 46.8614 82.15C46.188 82.15 45.6147 81.92 45.1414 81.46C44.6747 80.9933 44.4414 80.3667 44.4414 79.58C44.4414 78.8467 44.668 78.24 45.1214 77.76C45.5747 77.28 46.1147 77.04 46.7414 77.04C47.468 77.04 48.0347 77.27 48.4414 77.73C48.848 78.1833 49.0514 78.7933 49.0514 79.56C49.0514 79.68 49.0447 79.78 49.0314 79.86H45.4114C45.418 80.2867 45.558 80.6367 45.8314 80.91C46.1114 81.1833 46.4547 81.32 46.8614 81.32C47.548 81.32 47.998 80.9967 48.2114 80.35ZM51.3113 82H50.3713V74.76H51.3113V82ZM53.9604 82H53.0304V77.19H53.9604V82ZM53.0104 75.85C52.8837 75.7167 52.8204 75.5567 52.8204 75.37C52.8204 75.1833 52.8837 75.0233 53.0104 74.89C53.1437 74.7567 53.3037 74.69 53.4904 74.69C53.677 74.69 53.837 74.7567 53.9704 74.89C54.1037 75.0167 54.1704 75.1767 54.1704 75.37C54.1704 75.5567 54.1037 75.7167 53.9704 75.85C53.837 75.9767 53.677 76.04 53.4904 76.04C53.3037 76.04 53.1437 75.9767 53.0104 75.85ZM56.6196 79.22V82H55.6796V77.19H56.5996V77.88C56.9196 77.3267 57.413 77.05 58.0796 77.05C58.633 77.05 59.0563 77.2267 59.3496 77.58C59.6496 77.9333 59.7996 78.39 59.7996 78.95V82H58.8596V79.11C58.8596 78.3033 58.4863 77.9 57.7396 77.9C57.3863 77.9 57.1096 78.0267 56.9096 78.28C56.7163 78.5267 56.6196 78.84 56.6196 79.22ZM62.0249 79.1H64.6549C64.6416 78.74 64.5216 78.4467 64.2949 78.22C64.0682 77.9867 63.7482 77.87 63.3349 77.87C62.9616 77.87 62.6549 77.9933 62.4149 78.24C62.1749 78.48 62.0449 78.7667 62.0249 79.1ZM64.7949 80.35L65.6049 80.63C65.4649 81.0767 65.2049 81.4433 64.8249 81.73C64.4449 82.01 63.9849 82.15 63.4449 82.15C62.7716 82.15 62.1982 81.92 61.7249 81.46C61.2582 80.9933 61.0249 80.3667 61.0249 79.58C61.0249 78.8467 61.2516 78.24 61.7049 77.76C62.1582 77.28 62.6982 77.04 63.3249 77.04C64.0516 77.04 64.6182 77.27 65.0249 77.73C65.4316 78.1833 65.6349 78.7933 65.6349 79.56C65.6349 79.68 65.6282 79.78 65.6149 79.86H61.9949C62.0016 80.2867 62.1416 80.6367 62.4149 80.91C62.6949 81.1833 63.0382 81.32 63.4449 81.32C64.1316 81.32 64.5816 80.9967 64.7949 80.35Z" fill="#384F7D" fill-opacity="0.45"/>
<path d="M54.5183 55.9193C54.2524 55.9193 54.0367 56.1362 54.0367 56.4036V65.0315H48.8682V59.6155C48.8682 59.3481 48.6525 59.1312 48.3865 59.1312H44.6136C44.3476 59.1312 44.1319 59.3481 44.1319 59.6155V63.91C44.1319 64.1774 44.3476 64.3943 44.6136 64.3943C44.8795 64.3943 45.0952 64.1774 45.0952 63.91V60.0997H47.9049V65.0315H38.9633V53.1778L46.5 47.105L54.2171 53.3232C54.4247 53.4905 54.7278 53.4568 54.8941 53.2481C55.0604 53.0394 55.0271 52.7347 54.8195 52.5674L46.8012 46.1064C46.6252 45.9645 46.3747 45.9645 46.1988 46.1064L38.1805 52.5674C38.0664 52.6593 38 52.7982 38 52.9453V65.5157C38 65.7831 38.2156 66 38.4817 66H54.5183C54.7844 66 55 65.7831 55 65.5157V56.4036C55 56.1361 54.7844 55.9193 54.5183 55.9193Z" fill="#384F7D" fill-opacity="0.45"/>
<path fill-rule="evenodd" clip-rule="evenodd" d="M187 38H281V87H187V38Z" fill="#B9CAD2" fill-opacity="0.01"/>
<path d="M212.06 82L211.29 80.02H208.15L207.4 82H206.35L209.17 74.91H210.3L213.12 82H212.06ZM209.71 75.93L208.5 79.11H210.94L209.71 75.93ZM214.605 79.58C214.605 80.0867 214.728 80.5 214.975 80.82C215.228 81.14 215.575 81.3 216.015 81.3C216.435 81.3 216.771 81.1367 217.025 80.81C217.278 80.4833 217.405 80.0667 217.405 79.56C217.405 79.06 217.281 78.6567 217.035 78.35C216.788 78.0433 216.451 77.89 216.025 77.89C215.598 77.89 215.255 78.0467 214.995 78.36C214.735 78.6733 214.605 79.08 214.605 79.58ZM217.415 81.35V81.27C217.288 81.5167 217.095 81.7233 216.835 81.89C216.581 82.05 216.278 82.13 215.925 82.13C215.238 82.13 214.685 81.89 214.265 81.41C213.851 80.9233 213.645 80.3133 213.645 79.58C213.645 78.88 213.858 78.2867 214.285 77.8C214.711 77.3067 215.258 77.06 215.925 77.06C216.318 77.06 216.638 77.14 216.885 77.3C217.131 77.4533 217.301 77.6433 217.395 77.87V74.76H218.325V81.11C218.325 81.4367 218.341 81.7333 218.375 82H217.465C217.431 81.8133 217.415 81.5967 217.415 81.35ZM220.604 79.58C220.604 80.0867 220.727 80.5 220.974 80.82C221.227 81.14 221.574 81.3 222.014 81.3C222.434 81.3 222.77 81.1367 223.024 80.81C223.277 80.4833 223.404 80.0667 223.404 79.56C223.404 79.06 223.28 78.6567 223.034 78.35C222.787 78.0433 222.45 77.89 222.024 77.89C221.597 77.89 221.254 78.0467 220.994 78.36C220.734 78.6733 220.604 79.08 220.604 79.58ZM223.414 81.35V81.27C223.287 81.5167 223.094 81.7233 222.834 81.89C222.58 82.05 222.277 82.13 221.924 82.13C221.237 82.13 220.684 81.89 220.264 81.41C219.85 80.9233 219.644 80.3133 219.644 79.58C219.644 78.88 219.857 78.2867 220.284 77.8C220.71 77.3067 221.257 77.06 221.924 77.06C222.317 77.06 222.637 77.14 222.884 77.3C223.13 77.4533 223.3 77.6433 223.394 77.87V74.76H224.324V81.11C224.324 81.4367 224.34 81.7333 224.374 82H223.464C223.43 81.8133 223.414 81.5967 223.414 81.35ZM232.432 82L230.812 79.1H229.752V82H228.762V74.91H231.432C232.086 74.91 232.609 75.1133 233.002 75.52C233.402 75.92 233.602 76.42 233.602 77.02C233.602 77.5333 233.449 77.9733 233.142 78.34C232.836 78.7 232.416 78.93 231.882 79.03L233.572 82H232.432ZM229.752 78.22H231.252C231.652 78.22 231.976 78.1133 232.222 77.9C232.469 77.68 232.592 77.3867 232.592 77.02C232.592 76.6467 232.469 76.35 232.222 76.13C231.976 75.9033 231.652 75.79 231.252 75.79H229.752V78.22ZM235.389 79.1H238.019C238.005 78.74 237.885 78.4467 237.659 78.22C237.432 77.9867 237.112 77.87 236.699 77.87C236.325 77.87 236.019 77.9933 235.779 78.24C235.539 78.48 235.409 78.7667 235.389 79.1ZM238.159 80.35L238.969 80.63C238.829 81.0767 238.569 81.4433 238.189 81.73C237.809 82.01 237.349 82.15 236.809 82.15C236.135 82.15 235.562 81.92 235.089 81.46C234.622 80.9933 234.389 80.3667 234.389 79.58C234.389 78.8467 234.615 78.24 235.069 77.76C235.522 77.28 236.062 77.04 236.689 77.04C237.415 77.04 237.982 77.27 238.389 77.73C238.795 78.1833 238.999 78.7933 238.999 79.56C238.999 79.68 238.992 79.78 238.979 79.86H235.359C235.365 80.2867 235.505 80.6367 235.779 80.91C236.059 81.1833 236.402 81.32 236.809 81.32C237.495 81.32 237.945 80.9967 238.159 80.35ZM244.341 77.19L242.421 82H241.471L239.521 77.19H240.581L241.951 80.9L243.331 77.19H244.341ZM246.29 82H245.36V77.19H246.29V82ZM245.34 75.85C245.214 75.7167 245.15 75.5567 245.15 75.37C245.15 75.1833 245.214 75.0233 245.34 74.89C245.474 74.7567 245.634 74.69 245.82 74.69C246.007 74.69 246.167 74.7567 246.3 74.89C246.434 75.0167 246.5 75.1767 246.5 75.37C246.5 75.5567 246.434 75.7167 246.3 75.85C246.167 75.9767 246.007 76.04 245.82 76.04C245.634 76.04 245.474 75.9767 245.34 75.85ZM248.62 79.1H251.25C251.236 78.74 251.116 78.4467 250.89 78.22C250.663 77.9867 250.343 77.87 249.93 77.87C249.556 77.87 249.25 77.9933 249.01 78.24C248.77 78.48 248.64 78.7667 248.62 79.1ZM251.39 80.35L252.2 80.63C252.06 81.0767 251.8 81.4433 251.42 81.73C251.04 82.01 250.58 82.15 250.04 82.15C249.366 82.15 248.793 81.92 248.32 81.46C247.853 80.9933 247.62 80.3667 247.62 79.58C247.62 78.8467 247.846 78.24 248.3 77.76C248.753 77.28 249.293 77.04 249.92 77.04C250.646 77.04 251.213 77.27 251.62 77.73C252.026 78.1833 252.23 78.7933 252.23 79.56C252.23 79.68 252.223 79.78 252.21 79.86H248.59C248.596 80.2867 248.736 80.6367 249.01 80.91C249.29 81.1833 249.633 81.32 250.04 81.32C250.726 81.32 251.176 80.9967 251.39 80.35ZM256.211 77.19H257.181L258.431 80.81L259.491 77.19H260.481L258.921 82H257.951L256.671 78.34L255.421 82H254.431L252.851 77.19H253.881L254.961 80.81L256.211 77.19Z" fill="#384F7D" fill-opacity="0.45"/>
<path d="M238.625 65.375C240.696 65.375 242.375 63.6961 242.375 61.625C242.375 59.5539 240.696 57.875 238.625 57.875C236.554 57.875 234.875 59.5539 234.875 61.625C234.875 63.6961 236.554 65.375 238.625 65.375Z" stroke="#A5B0C4" stroke-miterlimit="10" stroke-linecap="square"/>
<path d="M238.625 60.375V62.875" stroke="#A5B0C4" stroke-miterlimit="10" stroke-linecap="square"/>
<path d="M237.375 61.625H239.875" stroke="#A5B0C4" stroke-miterlimit="10" stroke-linecap="square"/>
<path d="M232.375 61.3788L227.593 63.8925L228.625 57.8706L224.25 53.6063L230.296 52.7275L233 47.25L235.704 52.7275L241.75 53.6063L239.875 55.4338" stroke="#A5B0C4" stroke-miterlimit="10" stroke-linecap="square"/>
<path fill-rule="evenodd" clip-rule="evenodd" d="M137 100C137 98.8954 137.895 98 139 98H235C236.105 98 237 98.8954 237 100C237 101.105 236.105 102 235 102H139C137.895 102 137 101.105 137 100Z" fill="#384F7D" fill-opacity="0.1"/>
<path d="M140.04 50V56" stroke="#384F7D" stroke-miterlimit="10"/>
<path d="M150.067 50H153.827V66H126.253V50H130.013" stroke="#384F7D" stroke-miterlimit="10" stroke-linecap="square"/>
<path d="M142.547 48C141.162 48 140.04 48.895 140.04 50C140.04 48.895 138.918 48 137.533 48H130.013V62H137.533C138.918 62 140.04 62.895 140.04 64C140.04 62.895 141.162 62 142.547 62H150.067V48H142.547Z" stroke="#384F7D" stroke-miterlimit="10" stroke-linecap="square"/>
<path d="M125.839 82H124.869V76.48L122.449 82H121.549L119.149 76.48V82H118.179V74.91H119.509L122.009 80.68L124.529 74.91H125.839V82ZM128.862 84.01H127.832L129.032 81.47L126.962 77.19H128.042L129.542 80.51L130.982 77.19H131.992L128.862 84.01ZM135.736 74.91H138.046C138.706 74.91 139.226 75.0867 139.606 75.44C139.993 75.7933 140.186 76.2567 140.186 76.83C140.186 77.1967 140.089 77.5133 139.896 77.78C139.703 78.0467 139.446 78.24 139.126 78.36C139.519 78.46 139.829 78.67 140.056 78.99C140.289 79.3033 140.406 79.6633 140.406 80.07C140.406 80.63 140.203 81.0933 139.796 81.46C139.389 81.82 138.863 82 138.216 82H135.736V74.91ZM136.716 78.01H137.936C138.323 78.01 138.629 77.9067 138.856 77.7C139.083 77.4867 139.196 77.2133 139.196 76.88C139.196 76.54 139.079 76.27 138.846 76.07C138.613 75.87 138.296 75.77 137.896 75.77H136.716V78.01ZM136.716 81.14H138.076C138.476 81.14 138.796 81.0367 139.036 80.83C139.283 80.6233 139.406 80.35 139.406 80.01C139.406 79.6567 139.296 79.3767 139.076 79.17C138.856 78.9567 138.536 78.85 138.116 78.85H136.716V81.14ZM142.811 80.86C143.104 81.16 143.461 81.31 143.881 81.31C144.301 81.31 144.654 81.16 144.941 80.86C145.234 80.5533 145.381 80.13 145.381 79.59C145.381 79.0567 145.234 78.64 144.941 78.34C144.654 78.0333 144.301 77.88 143.881 77.88C143.461 77.88 143.104 78.0333 142.811 78.34C142.524 78.64 142.381 79.0567 142.381 79.59C142.381 80.13 142.524 80.5533 142.811 80.86ZM142.111 77.77C142.577 77.2833 143.167 77.04 143.881 77.04C144.594 77.04 145.181 77.2833 145.641 77.77C146.107 78.25 146.341 78.8567 146.341 79.59C146.341 80.33 146.111 80.9433 145.651 81.43C145.191 81.91 144.601 82.15 143.881 82.15C143.161 82.15 142.571 81.91 142.111 81.43C141.651 80.9433 141.421 80.33 141.421 79.59C141.421 78.8567 141.651 78.25 142.111 77.77ZM148.653 80.86C148.946 81.16 149.303 81.31 149.723 81.31C150.143 81.31 150.496 81.16 150.783 80.86C151.076 80.5533 151.223 80.13 151.223 79.59C151.223 79.0567 151.076 78.64 150.783 78.34C150.496 78.0333 150.143 77.88 149.723 77.88C149.303 77.88 148.946 78.0333 148.653 78.34C148.366 78.64 148.223 79.0567 148.223 79.59C148.223 80.13 148.366 80.5533 148.653 80.86ZM147.953 77.77C148.42 77.2833 149.01 77.04 149.723 77.04C150.436 77.04 151.023 77.2833 151.483 77.77C151.95 78.25 152.183 78.8567 152.183 79.59C152.183 80.33 151.953 80.9433 151.493 81.43C151.033 81.91 150.443 82.15 149.723 82.15C149.003 82.15 148.413 81.91 147.953 81.43C147.493 80.9433 147.263 80.33 147.263 79.59C147.263 78.8567 147.493 78.25 147.953 77.77ZM157.816 77.19L155.766 79.22L157.856 82H156.676L155.106 79.88L154.436 80.55V82H153.506V74.76H154.436V79.32L156.516 77.19H157.816ZM158.43 80.75L159.28 80.45C159.313 80.71 159.426 80.9267 159.62 81.1C159.813 81.2667 160.073 81.35 160.4 81.35C160.653 81.35 160.853 81.29 161 81.17C161.146 81.0433 161.22 80.89 161.22 80.71C161.22 80.39 161.013 80.1833 160.6 80.09L159.78 79.91C159.406 79.83 159.113 79.67 158.9 79.43C158.686 79.19 158.58 78.9 158.58 78.56C158.58 78.1467 158.746 77.79 159.08 77.49C159.42 77.19 159.823 77.04 160.29 77.04C160.596 77.04 160.87 77.0867 161.11 77.18C161.35 77.2667 161.536 77.3833 161.67 77.53C161.803 77.6767 161.903 77.8133 161.97 77.94C162.036 78.0667 162.086 78.1967 162.12 78.33L161.29 78.64C161.276 78.56 161.253 78.4833 161.22 78.41C161.186 78.33 161.133 78.2433 161.06 78.15C160.993 78.0567 160.893 77.9833 160.76 77.93C160.626 77.87 160.47 77.84 160.29 77.84C160.056 77.84 159.863 77.9033 159.71 78.03C159.563 78.1567 159.49 78.3067 159.49 78.48C159.49 78.7867 159.673 78.98 160.04 79.06L160.82 79.23C161.246 79.3233 161.573 79.4967 161.8 79.75C162.033 79.9967 162.15 80.3 162.15 80.66C162.15 81.04 161.993 81.3833 161.68 81.69C161.373 81.9967 160.943 82.15 160.39 82.15C159.796 82.15 159.333 82.0033 159 81.71C158.666 81.41 158.476 81.09 158.43 80.75Z" fill="#384F7D"/>
<defs>
<filter id="filter0_d" x="-35" y="0" width="445" height="144" filterUnits="userSpaceOnUse" color-interpolation-filters="sRGB">
<feFlood flood-opacity="0" result="BackgroundImageFix"/>
<feColorMatrix in="SourceAlpha" type="matrix" values="0 0 0 0 0 0 0 0 0 0 0 0 0 0 0 0 0 0 127 0"/>
<feOffset dy="-3"/>
<feGaussianBlur stdDeviation="17.5"/>
<feColorMatrix type="matrix" values="0 0 0 0 0.494118 0 0 0 0 0.592157 0 0 0 0 0.658824 0 0 0 0.16 0"/>
<feBlend mode="normal" in2="BackgroundImageFix" result="effect1_dropShadow"/>
<feBlend mode="normal" in="SourceGraphic" in2="effect1_dropShadow" result="shape"/>
</filter>
</defs>
</svg>
