<svg width="62" height="10" viewBox="0 0 62 10" fill="none" xmlns="http://www.w3.org/2000/svg">
<path d="M1.41 3.85L0.43 3.73C0.423333 3.67 0.42 3.58333 0.42 3.47C0.42 2.89 0.623333 2.39667 1.03 1.99C1.43667 1.57667 1.98 1.37 2.66 1.37C3.33333 1.37 3.86667 1.56333 4.26 1.95C4.65333 2.33 4.85 2.8 4.85 3.36C4.85 4.18 4.44333 4.84667 3.63 5.36L2.35 6.18C1.89 6.47333 1.62667 6.77667 1.56 7.09H4.89V8H0.35C0.363333 7.45333 0.486667 6.97333 0.72 6.56C0.96 6.14667 1.35 5.76667 1.89 5.42L2.97 4.72C3.56333 4.34 3.86 3.89 3.86 3.37C3.86 3.05 3.75333 2.78 3.54 2.56C3.32667 2.34 3.02667 2.23 2.64 2.23C2.23333 2.23 1.92333 2.35333 1.71 2.6C1.49667 2.84667 1.39 3.16667 1.39 3.56C1.39 3.62 1.39667 3.71667 1.41 3.85ZM5.99297 7.36C5.99297 7.18 6.06297 7.02333 6.20297 6.89C6.34297 6.75667 6.5163 6.69 6.72297 6.69C6.94964 6.69 7.13964 6.77333 7.29297 6.94C7.45297 7.10667 7.53297 7.34 7.53297 7.64C7.53297 8.24 7.37964 8.70333 7.07297 9.03C6.7663 9.35667 6.4263 9.54333 6.05297 9.59V9.07C6.29297 9.01667 6.48964 8.88333 6.64297 8.67C6.7963 8.46333 6.8763 8.23667 6.88297 7.99C6.8363 8.02333 6.76297 8.04 6.66297 8.04C6.46964 8.04 6.30964 7.98 6.18297 7.86C6.0563 7.73333 5.99297 7.56667 5.99297 7.36ZM8.08438 6.54V5.41L10.8644 1.52H12.2144V5.63H13.3244V6.54H12.2144V8H11.2644V6.54H8.08438ZM11.2644 5.63V2.46L8.98438 5.63H11.2644ZM18.7266 1.73L18.4266 2.53C18.1066 2.34333 17.7199 2.25 17.2666 2.25C16.6066 2.25 16.0699 2.46667 15.6566 2.9C15.2499 3.33333 15.0266 3.89 14.9866 4.57C15.1332 4.33 15.3532 4.13 15.6466 3.97C15.9466 3.81 16.2966 3.73 16.6966 3.73C17.3566 3.73 17.8899 3.92667 18.2966 4.32C18.7099 4.71333 18.9166 5.25333 18.9166 5.94C18.9166 6.61333 18.6832 7.15 18.2166 7.55C17.7499 7.95 17.1832 8.15 16.5166 8.15C15.8232 8.15 15.2266 7.9 14.7266 7.4C14.2332 6.89333 13.9866 6.14333 13.9866 5.15C13.9866 3.97667 14.2999 3.05333 14.9266 2.38C15.5532 1.70667 16.3532 1.37 17.3266 1.37C17.9199 1.37 18.3866 1.49 18.7266 1.73ZM15.1266 5.94C15.1266 6.34667 15.2666 6.67667 15.5466 6.93C15.8266 7.17667 16.1532 7.3 16.5266 7.3C16.9199 7.3 17.2499 7.17667 17.5166 6.93C17.7899 6.68333 17.9266 6.35333 17.9266 5.94C17.9266 5.52 17.7899 5.18667 17.5166 4.94C17.2499 4.69333 16.9199 4.57 16.5266 4.57C16.1332 4.57 15.7999 4.69333 15.5266 4.94C15.2599 5.18667 15.1266 5.52 15.1266 5.94ZM19.6273 6.54V5.41L22.4073 1.52H23.7573V5.63H24.8673V6.54H23.7573V8H22.8073V6.54H19.6273ZM22.8073 5.63V2.46L20.5273 5.63H22.8073ZM30.9895 3.14V4.14C30.8495 4.12 30.7129 4.11 30.5795 4.11C29.6995 4.11 29.2595 4.60333 29.2595 5.59V8H28.3195V3.19H29.2395V4.03C29.5329 3.41667 30.0129 3.11 30.6795 3.11C30.7862 3.11 30.8895 3.12 30.9895 3.14ZM32.5526 5.1H35.1826C35.1692 4.74 35.0492 4.44667 34.8226 4.22C34.5959 3.98667 34.2759 3.87 33.8626 3.87C33.4892 3.87 33.1826 3.99333 32.9426 4.24C32.7026 4.48 32.5726 4.76667 32.5526 5.1ZM35.3226 6.35L36.1326 6.63C35.9926 7.07667 35.7326 7.44333 35.3526 7.73C34.9726 8.01 34.5126 8.15 33.9726 8.15C33.2992 8.15 32.7259 7.92 32.2526 7.46C31.7859 6.99333 31.5526 6.36667 31.5526 5.58C31.5526 4.84667 31.7792 4.24 32.2326 3.76C32.6859 3.28 33.2259 3.04 33.8526 3.04C34.5792 3.04 35.1459 3.27 35.5526 3.73C35.9592 4.18333 36.1626 4.79333 36.1626 5.56C36.1626 5.68 36.1559 5.78 36.1426 5.86H32.5226C32.5292 6.28667 32.6692 6.63667 32.9426 6.91C33.2226 7.18333 33.5659 7.32 33.9726 7.32C34.6592 7.32 35.1092 6.99667 35.3226 6.35ZM41.3848 3.19L39.4648 8H38.5148L36.5648 3.19H37.6248L38.9948 6.9L40.3748 3.19H41.3848ZM43.2144 8H42.2844V3.19H43.2144V8ZM42.2644 1.85C42.1377 1.71667 42.0744 1.55667 42.0744 1.37C42.0744 1.18333 42.1377 1.02333 42.2644 0.89C42.3977 0.756667 42.5577 0.69 42.7444 0.69C42.931 0.69 43.091 0.756667 43.2244 0.89C43.3577 1.01667 43.4244 1.17667 43.4244 1.37C43.4244 1.55667 43.3577 1.71667 43.2244 1.85C43.091 1.97667 42.931 2.04 42.7444 2.04C42.5577 2.04 42.3977 1.97667 42.2644 1.85ZM45.4237 5.1H48.0537C48.0403 4.74 47.9203 4.44667 47.6937 4.22C47.467 3.98667 47.147 3.87 46.7337 3.87C46.3603 3.87 46.0537 3.99333 45.8137 4.24C45.5737 4.48 45.4437 4.76667 45.4237 5.1ZM48.1937 6.35L49.0037 6.63C48.8637 7.07667 48.6037 7.44333 48.2237 7.73C47.8437 8.01 47.3837 8.15 46.8437 8.15C46.1703 8.15 45.597 7.92 45.1237 7.46C44.657 6.99333 44.4237 6.36667 44.4237 5.58C44.4237 4.84667 44.6503 4.24 45.1037 3.76C45.557 3.28 46.097 3.04 46.7237 3.04C47.4503 3.04 48.017 3.27 48.4237 3.73C48.8303 4.18333 49.0337 4.79333 49.0337 5.56C49.0337 5.68 49.027 5.78 49.0137 5.86H45.3937C45.4003 6.28667 45.5403 6.63667 45.8137 6.91C46.0937 7.18333 46.437 7.32 46.8437 7.32C47.5303 7.32 47.9803 6.99667 48.1937 6.35ZM52.8948 3.19H53.8648L55.1148 6.81L56.1748 3.19H57.1648L55.6048 8H54.6348L53.3548 4.34L52.1048 8H51.1148L49.5348 3.19H50.5648L51.6448 6.81L52.8948 3.19ZM57.6645 6.75L58.5145 6.45C58.5478 6.71 58.6611 6.92667 58.8545 7.1C59.0478 7.26667 59.3078 7.35 59.6345 7.35C59.8878 7.35 60.0878 7.29 60.2345 7.17C60.3811 7.04333 60.4545 6.89 60.4545 6.71C60.4545 6.39 60.2478 6.18333 59.8345 6.09L59.0145 5.91C58.6411 5.83 58.3478 5.67 58.1345 5.43C57.9211 5.19 57.8145 4.9 57.8145 4.56C57.8145 4.14667 57.9811 3.79 58.3145 3.49C58.6545 3.19 59.0578 3.04 59.5245 3.04C59.8311 3.04 60.1045 3.08667 60.3445 3.18C60.5845 3.26667 60.7711 3.38333 60.9045 3.53C61.0378 3.67667 61.1378 3.81333 61.2045 3.94C61.2711 4.06667 61.3211 4.19667 61.3545 4.33L60.5245 4.64C60.5111 4.56 60.4878 4.48333 60.4545 4.41C60.4211 4.33 60.3678 4.24333 60.2945 4.15C60.2278 4.05667 60.1278 3.98333 59.9945 3.93C59.8611 3.87 59.7045 3.84 59.5245 3.84C59.2911 3.84 59.0978 3.90333 58.9445 4.03C58.7978 4.15667 58.7245 4.30667 58.7245 4.48C58.7245 4.78667 58.9078 4.98 59.2745 5.06L60.0545 5.23C60.4811 5.32333 60.8078 5.49667 61.0345 5.75C61.2678 5.99667 61.3845 6.3 61.3845 6.66C61.3845 7.04 61.2278 7.38333 60.9145 7.69C60.6078 7.99667 60.1778 8.15 59.6245 8.15C59.0311 8.15 58.5678 8.00333 58.2345 7.71C57.9011 7.41 57.7111 7.09 57.6645 6.75Z" fill="#384F7D" fill-opacity="0.8"/>
</svg>
