<svg width="195" height="16" viewBox="0 0 195 16" fill="none" xmlns="http://www.w3.org/2000/svg">
<path d="M13.384 10.332V8.604L16.66 4.212H18.7V8.916H19.984V10.332H18.7V12H17.068V10.332H13.384ZM17.068 8.916V5.94L14.848 8.916H17.068ZM21.2522 11.772C21.0362 11.556 20.9282 11.296 20.9282 10.992C20.9282 10.688 21.0362 10.432 21.2522 10.224C21.4682 10.008 21.7242 9.9 22.0202 9.9C22.3242 9.9 22.5842 10.008 22.8002 10.224C23.0162 10.432 23.1242 10.688 23.1242 10.992C23.1242 11.296 23.0162 11.556 22.8002 11.772C22.5842 11.98 22.3242 12.084 22.0202 12.084C21.7242 12.084 21.4682 11.98 21.2522 11.772ZM30.1083 4.392L29.6523 5.736C29.2203 5.552 28.7923 5.46 28.3683 5.46C27.6883 5.46 27.1083 5.656 26.6283 6.048C26.1563 6.432 25.8763 6.98 25.7883 7.692C25.9483 7.452 26.1883 7.248 26.5083 7.08C26.8363 6.912 27.2123 6.828 27.6363 6.828C28.4443 6.828 29.0923 7.064 29.5803 7.536C30.0763 8.008 30.3243 8.644 30.3243 9.444C30.3243 10.236 30.0363 10.892 29.4603 11.412C28.8923 11.924 28.1763 12.18 27.3123 12.18C26.4163 12.18 25.6643 11.868 25.0563 11.244C24.4563 10.612 24.1563 9.732 24.1563 8.604C24.1563 7.212 24.5523 6.104 25.3443 5.28C26.1363 4.448 27.1803 4.032 28.4763 4.032C29.1563 4.032 29.7003 4.152 30.1083 4.392ZM25.9323 9.48C25.9323 9.864 26.0643 10.18 26.3283 10.428C26.6003 10.668 26.9243 10.788 27.3003 10.788C27.6923 10.788 28.0203 10.668 28.2843 10.428C28.5483 10.188 28.6803 9.872 28.6803 9.48C28.6803 9.088 28.5483 8.776 28.2843 8.544C28.0203 8.304 27.6923 8.184 27.3003 8.184C26.9163 8.184 26.5923 8.304 26.3283 8.544C26.0643 8.776 25.9323 9.088 25.9323 9.48ZM34.0447 7.404C34.3967 7.396 34.6767 7.296 34.8847 7.104C35.0927 6.912 35.1967 6.672 35.1967 6.384C35.1967 6.112 35.0927 5.88 34.8847 5.688C34.6767 5.496 34.3967 5.4 34.0447 5.4C33.7007 5.4 33.4247 5.496 33.2167 5.688C33.0087 5.88 32.9047 6.112 32.9047 6.384C32.9047 6.672 33.0047 6.912 33.2047 7.104C33.4127 7.296 33.6927 7.396 34.0447 7.404ZM33.0847 10.5C33.3167 10.708 33.6367 10.812 34.0447 10.812C34.4527 10.812 34.7727 10.708 35.0047 10.5C35.2447 10.284 35.3647 10.028 35.3647 9.732C35.3647 9.428 35.2487 9.168 35.0167 8.952C34.7847 8.736 34.4607 8.628 34.0447 8.628C33.6287 8.628 33.3047 8.736 33.0727 8.952C32.8487 9.168 32.7367 9.428 32.7367 9.732C32.7367 10.028 32.8527 10.284 33.0847 10.5ZM36.1687 11.544C35.6327 11.968 34.9247 12.18 34.0447 12.18C33.1647 12.18 32.4527 11.968 31.9087 11.544C31.3727 11.12 31.1047 10.572 31.1047 9.9C31.1047 9.484 31.2287 9.104 31.4767 8.76C31.7327 8.416 32.0687 8.164 32.4847 8.004C32.1087 7.868 31.8087 7.636 31.5847 7.308C31.3687 6.972 31.2607 6.624 31.2607 6.264C31.2607 5.608 31.5207 5.072 32.0407 4.656C32.5687 4.24 33.2367 4.032 34.0447 4.032C34.8527 4.032 35.5167 4.24 36.0367 4.656C36.5647 5.072 36.8287 5.608 36.8287 6.264C36.8287 6.624 36.7207 6.972 36.5047 7.308C36.2887 7.636 35.9927 7.868 35.6167 8.004C36.0247 8.156 36.3527 8.408 36.6007 8.76C36.8567 9.104 36.9847 9.484 36.9847 9.9C36.9847 10.572 36.7127 11.12 36.1687 11.544Z" fill="#384F7D"/>
<path d="M6.20868 6.56626L4.96694 3L3.72521 6.56626H0L3.03604 8.94295L1.84274 12.616L4.96694 10.3461L8.09115 12.616L6.89784 8.94295L9.93388 6.56626H6.20868Z" fill="#445984"/>
</svg>
