<svg width="375" height="44" viewBox="0 0 375 44" fill="none" xmlns="http://www.w3.org/2000/svg">
<path fill-rule="evenodd" clip-rule="evenodd" d="M0 12V31.9885H374.785V12H0Z" fill="black" fill-opacity="0.01"/>
<path opacity="0.35" d="M338.603 19.6691C338.603 18.4725 339.573 17.5024 340.77 17.5024H355.238C356.435 17.5024 357.405 18.4725 357.405 19.6691V24.3334C357.405 25.53 356.435 26.5001 355.238 26.5001H340.77C339.573 26.5001 338.603 25.53 338.603 24.3334V19.6691Z" stroke="white"/>
<path opacity="0.4" d="M358.805 20.2368V23.7654C359.529 23.4666 360 22.7713 360 22.0011C360 21.2309 359.529 20.5357 358.805 20.2368Z" fill="white"/>
<path d="M339.903 20.0999C339.903 19.3636 340.5 18.7666 341.236 18.7666H354.771C355.507 18.7666 356.104 19.3636 356.104 20.0999V23.9023C356.104 24.6387 355.507 25.2357 354.771 25.2357H341.236C340.5 25.2357 339.903 24.6387 339.903 23.9023V20.0999Z" fill="white"/>
<path fill-rule="evenodd" clip-rule="evenodd" d="M326.699 19.0089C328.694 19.009 330.612 19.7601 332.058 21.107C332.166 21.211 332.34 21.2096 332.448 21.104L333.488 20.0749C333.542 20.0213 333.573 19.9487 333.572 19.8732C333.572 19.7977 333.541 19.7255 333.486 19.6726C329.692 16.1091 323.706 16.1091 319.913 19.6726C319.858 19.7255 319.826 19.7977 319.826 19.8732C319.825 19.9487 319.856 20.0213 319.91 20.0749L320.951 21.104C321.058 21.2098 321.232 21.2111 321.341 21.107C322.786 19.76 324.705 19.0089 326.699 19.0089ZM326.699 22.3573C327.795 22.3572 328.852 22.7564 329.664 23.4773C329.774 23.5796 329.947 23.5774 330.054 23.4723L331.094 22.4431C331.148 22.3891 331.179 22.3159 331.178 22.2398C331.177 22.1637 331.145 22.0911 331.089 22.0382C328.616 19.7831 324.785 19.7831 322.312 22.0382C322.256 22.0911 322.224 22.1638 322.223 22.2399C322.222 22.316 322.253 22.3892 322.308 22.4431L323.347 23.4723C323.454 23.5774 323.627 23.5796 323.737 23.4773C324.548 22.7569 325.604 22.3577 326.699 22.3573ZM328.781 24.6101C328.783 24.6864 328.752 24.76 328.697 24.8135L326.899 26.5916C326.846 26.6438 326.774 26.6732 326.699 26.6732C326.624 26.6732 326.553 26.6438 326.5 26.5916L324.702 24.8135C324.646 24.76 324.616 24.6864 324.617 24.6101C324.619 24.5337 324.653 24.4615 324.711 24.4103C325.859 23.4586 327.54 23.4586 328.688 24.4103C328.746 24.4615 328.78 24.5338 328.781 24.6101Z" fill="white"/>
<path fill-rule="evenodd" clip-rule="evenodd" d="M314.401 17.2964H313.501C313.004 17.2964 312.601 17.6913 312.601 18.1785V25.8238C312.601 26.311 313.004 26.7059 313.501 26.7059H314.401C314.898 26.7059 315.301 26.311 315.301 25.8238V18.1785C315.301 17.6913 314.898 17.2964 314.401 17.2964ZM309.301 19.3547H310.201C310.698 19.3547 311.101 19.7497 311.101 20.2369V25.8238C311.101 26.311 310.698 26.7059 310.201 26.7059H309.301C308.804 26.7059 308.401 26.311 308.401 25.8238V20.2369C308.401 19.7497 308.804 19.3547 309.301 19.3547ZM306 21.4131H305.1C304.603 21.4131 304.2 21.808 304.2 22.2952V25.8238C304.2 26.311 304.603 26.706 305.1 26.706H306C306.498 26.706 306.901 26.311 306.901 25.8238V22.2952C306.901 21.808 306.498 21.4131 306 21.4131ZM301.8 23.1774H300.9C300.403 23.1774 300 23.5723 300 24.0595V25.8238C300 26.311 300.403 26.706 300.9 26.706H301.8C302.297 26.706 302.7 26.311 302.7 25.8238V24.0595C302.7 23.5723 302.297 23.1774 301.8 23.1774Z" fill="white"/>
<path d="M28.1074 23.7695L28.5703 19.4688H33.1523V20.6992H29.7539L29.5195 22.7383C29.9141 22.5117 30.3594 22.3984 30.8555 22.3984C31.668 22.3984 32.2988 22.6582 32.748 23.1777C33.2012 23.6973 33.4277 24.3965 33.4277 25.2754C33.4277 26.1426 33.1777 26.834 32.6777 27.3496C32.1777 27.8613 31.4922 28.1172 30.6211 28.1172C29.8398 28.1172 29.1914 27.8965 28.6758 27.4551C28.1641 27.0098 27.8867 26.4238 27.8438 25.6973H29.2207C29.2754 26.1113 29.4238 26.4297 29.666 26.6523C29.9082 26.8711 30.2246 26.9805 30.6152 26.9805C31.0527 26.9805 31.3926 26.8242 31.6348 26.5117C31.8809 26.1992 32.0039 25.7734 32.0039 25.2344C32.0039 24.7148 31.8691 24.3047 31.5996 24.0039C31.3301 23.6992 30.959 23.5469 30.4863 23.5469C30.2285 23.5469 30.0098 23.582 29.8301 23.6523C29.6504 23.7188 29.4551 23.8516 29.2441 24.0508L28.1074 23.7695ZM35.4961 26.5C35.7617 26.5 35.9668 26.5762 36.1113 26.7285C36.2559 26.877 36.3281 27.0645 36.3281 27.291C36.3281 27.5137 36.2559 27.6992 36.1113 27.8477C35.9668 27.9922 35.7617 28.0645 35.4961 28.0645C35.2422 28.0645 35.041 27.9922 34.8926 27.8477C34.7441 27.7031 34.6699 27.5176 34.6699 27.291C34.6699 27.0645 34.7422 26.877 34.8867 26.7285C35.0312 26.5762 35.2344 26.5 35.4961 26.5ZM35.4961 21.5254C35.7617 21.5254 35.9668 21.6016 36.1113 21.7539C36.2559 21.9023 36.3281 22.0898 36.3281 22.3164C36.3281 22.5391 36.2559 22.7246 36.1113 22.873C35.9668 23.0176 35.7617 23.0898 35.4961 23.0898C35.2422 23.0898 35.041 23.0176 34.8926 22.873C34.7441 22.7285 34.6699 22.543 34.6699 22.3164C34.6699 22.0898 34.7422 21.9023 34.8867 21.7539C35.0312 21.6016 35.2344 21.5254 35.4961 21.5254ZM42.5508 24.959H43.6113V26.1016H42.5508V28H41.127V26.1016H37.4414L37.4004 25.2344L41.0801 19.4688H42.5508V24.959ZM38.8945 24.959H41.127V21.3965L41.0215 21.584L38.8945 24.959ZM50.1152 24.4082C50.1152 25.6348 49.8848 26.5605 49.4238 27.1855C48.9668 27.8066 48.2695 28.1172 47.332 28.1172C46.4102 28.1172 45.7148 27.8145 45.2461 27.209C44.7812 26.5996 44.543 25.6992 44.5312 24.5078V23.0312C44.5312 21.8047 44.7598 20.8848 45.2168 20.2715C45.6777 19.6582 46.3789 19.3516 47.3203 19.3516C48.2539 19.3516 48.9492 19.6504 49.4062 20.248C49.8672 20.8457 50.1035 21.7402 50.1152 22.9316V24.4082ZM48.6914 22.8145C48.6914 22.0137 48.582 21.4277 48.3633 21.0566C48.1445 20.6816 47.7969 20.4941 47.3203 20.4941C46.8555 20.4941 46.5137 20.6719 46.2949 21.0273C46.0762 21.3789 45.9609 21.9297 45.9492 22.6797V24.6133C45.9492 25.4102 46.0605 26.0039 46.2832 26.3945C46.5059 26.7852 46.8555 26.9805 47.332 26.9805C47.7891 26.9805 48.127 26.8008 48.3457 26.4414C48.5645 26.0781 48.6797 25.5117 48.6914 24.7422V22.8145ZM56.0742 24.8301V28H54.5918V19.4688H57.8555C58.8086 19.4688 59.5645 19.7168 60.123 20.2129C60.6855 20.709 60.9668 21.3652 60.9668 22.1816C60.9668 23.0176 60.6914 23.668 60.1406 24.1328C59.5938 24.5977 58.8262 24.8301 57.8379 24.8301H56.0742ZM56.0742 23.6406H57.8555C58.3828 23.6406 58.7852 23.5176 59.0625 23.2715C59.3398 23.0215 59.4785 22.6621 59.4785 22.1934C59.4785 21.7324 59.3379 21.3652 59.0566 21.0918C58.7754 20.8145 58.3887 20.6719 57.8965 20.6641H56.0742V23.6406ZM64.1895 19.4688L66.6504 26.0078L69.1055 19.4688H71.0215V28H69.5449V25.1875L69.6914 21.4258L67.1719 28H66.1113L63.5977 21.4316L63.7441 25.1875V28H62.2676V19.4688H64.1895Z" fill="white"/>
</svg>
